<svg width="350px" height="131.6px" xmlns="http://www.w3.org/2000/svg" viewBox="80 9.200000000000003 350 131.6" style="background: rgba(101, 16, 110, 0);" preserveAspectRatio="xMidYMid">
    <defs>
        <linearGradient id="editing-gradient-gradient" x1="0.9938441702975689" x2="0.006155829702431115" y1="0.5782172325201154" y2="0.42178276747988463" gradientUnits="objectBoundingBox">
            <stop offset="0" stop-color="#ff6666"></stop>
            <stop offset="1" stop-color="#8100ff"></stop>
        </linearGradient>
    </defs>
    <g>
        <g transform="translate(77.71498584747314, 98.18500328063965)">
            <path d="M12.75-46.06L12.75-24L12.75-24Q12.75-19.19 13.38-15.84L13.38-15.84L13.38-15.84Q14-12.50 15.19-10.34L15.19-10.34L15.19-10.34Q16.38-8.19 18.03-7.13L18.03-7.13L18.03-7.13Q19.69-6.06 21.75-5.88L21.75-5.88L21.75 0.31L21.75 0.31Q17.94 0.06 14.84-1.53L14.84-1.53L14.84-1.53Q11.75-3.13 9.63-6.09L9.63-6.09L9.63-6.09Q7.50-9.06 6.31-13.38L6.31-13.38L6.31-13.38Q5.13-17.69 5.13-23.25L5.13-23.25L5.13-46.06L12.75-46.06ZM33.38-46.06L40.94-46.06L40.94-23.25L40.94-23.25Q40.94-17.69 39.75-13.38L39.75-13.38L39.75-13.38Q38.56-9.06 36.41-6.09L36.41-6.09L36.41-6.09Q34.25-3.13 31.19-1.53L31.19-1.53L31.19-1.53Q28.13 0.06 24.31 0.31L24.31 0.31L24.31-5.88L24.31-5.88Q26.38-6.13 28.03-7.16L28.03-7.16L28.03-7.16Q29.69-8.19 30.88-10.31L30.88-10.31L30.88-10.31Q32.06-12.44 32.72-15.78L32.72-15.78L32.72-15.78Q33.38-19.13 33.38-24L33.38-24L33.38-46.06ZM51.88-46.06L59.50-46.06L59.50-5.69L80.69-5.69L80.69 0L51.88 0L51.88-46.06ZM98-30.13L98-10.69L98-10.69Q98-8.56 98.56-7.38L98.56-7.38L98.56-7.38Q99.13-6.19 100.16-5.56L100.16-5.56L100.16-5.56Q101.19-4.94 102.47-4.78L102.47-4.78L102.47-4.78Q103.75-4.63 105.19-4.63L105.19-4.63L105.19 0L105.19 0Q104.38 0.13 103.56 0.19L103.56 0.19L103.56 0.19Q102.88 0.25 101.91 0.28L101.91 0.28L101.91 0.28Q100.94 0.31 100 0.31L100 0.31L100 0.31Q99.06 0.31 98.09 0.25L98.09 0.25L98.09 0.25Q97.13 0.19 96.44 0.06L96.44 0.06L96.44 0.06Q94.31-0.31 93.13-1.78L93.13-1.78L93.13-1.78Q91.94-3.25 91.34-5.03L91.34-5.03L91.34-5.03Q90.75-6.81 90.59-8.50L90.59-8.50L90.59-8.50Q90.44-10.19 90.44-11.13L90.44-11.13L90.44-30.13L85.81-30.13L85.81-35.25L90.44-35.25L90.44-45.25L98-45.25L98-35.25L103.63-35.25L103.63-30.13L98-30.13ZM114.06-35.25L120.81-35.25L121.63-31.63L121.63-12.50L121.63-12.38L121.63 0L114.06 0L114.06-35.25ZM124.19-27.31L124.19-33.69L124.19-33.69Q125.75-34.56 127.94-35.03L127.94-35.03L127.94-35.03Q130.13-35.50 133.88-35.50L133.88-35.50L133.88-27.63L133.88-27.63Q132.13-28.13 129.63-28.19L129.63-28.19L129.63-28.19Q128.25-28.19 126.84-27.97L126.84-27.97L126.84-27.97Q125.44-27.75 124.19-27.31L124.19-27.31ZM148.06-10.63L148.06-10.63L148.06-10.63Q148.06-7.81 149.22-6.44L149.22-6.44L149.22-6.44Q150.38-5.06 152.56-4.81L152.56-4.81L152.56 0.25L152.56 0.25Q152.31 0.31 151.75 0.31L151.75 0.31L151.75 0.31Q149.63 0.31 147.66-0.25L147.66-0.25L147.66-0.25Q145.69-0.81 144.19-2.06L144.19-2.06L144.19-2.06Q142.69-3.31 141.84-5.38L141.84-5.38L141.84-5.38Q141-7.44 141-10.44L141-10.44L141-10.44Q141-13.31 142.22-15.41L142.22-15.41L142.22-15.41Q143.44-17.50 145.34-18.84L145.34-18.84L145.34-18.84Q147.25-20.19 149.69-20.84L149.69-20.84L149.69-20.84Q152.13-21.50 154.63-21.50L154.63-21.50L157.38-21.50L157.38-17.06L156-17.06L156-17.06Q154.75-17.06 153.38-16.81L153.38-16.81L153.38-16.81Q152-16.56 150.81-15.88L150.81-15.88L150.81-15.88Q149.63-15.19 148.84-13.91L148.84-13.91L148.84-13.91Q148.06-12.63 148.06-10.63ZM167.50-10.94L167.50-10.44L167.50-10.44Q167.50-9.94 167.56-8.97L167.56-8.97L167.56-8.97Q167.63-8 167.81-7L167.81-7L167.81-7Q168-6 168.41-5.19L168.41-5.19L168.41-5.19Q168.81-4.38 169.50-4.13L169.50-4.13L167.50 0.06L167.50 0.06Q166.69 0.06 165.78-0.31L165.78-0.31L165.78-0.31Q164.88-0.69 164.03-1.38L164.03-1.38L164.03-1.38Q163.19-2.06 162.59-2.91L162.59-2.91L162.59-2.91Q162-3.75 161.69-4.75L161.69-4.75L161.69-4.75Q161.06-3.19 159.22-1.97L159.22-1.97L159.22-1.97Q157.38-0.75 155.13-0.19L155.13-0.19L155.13-4.94L155.13-4.94Q156.63-5.25 157.84-6.16L157.84-6.16L157.84-6.16Q159.06-7.06 159.94-8.31L159.94-8.31L159.94-21.50L159.94-21.50Q159.94-24.56 159.63-26.38L159.63-26.38L159.63-26.38Q159.31-28.19 158.56-29.03L158.56-29.03L158.56-29.03Q157.81-29.88 156.72-30.09L156.72-30.09L156.72-30.09Q155.63-30.31 154.13-30.31L154.13-30.31L154.13-30.31Q152.75-30.31 151.53-29.97L151.53-29.97L151.53-29.97Q150.31-29.63 149.28-29.16L149.28-29.16L149.28-29.16Q148.25-28.69 147.47-28.13L147.47-28.13L147.47-28.13Q146.69-27.56 146.31-27.25L146.31-27.25L143.50-31.56L143.50-31.56Q144.13-32.25 145.38-32.97L145.38-32.97L145.38-32.97Q146.63-33.69 148.25-34.25L148.25-34.25L148.25-34.25Q149.88-34.81 151.78-35.16L151.78-35.16L151.78-35.16Q153.69-35.50 155.75-35.50L155.75-35.50L155.75-35.50Q157.63-35.50 159.41-35.13L159.41-35.13L159.41-35.13Q161.19-34.75 162.66-33.88L162.66-33.88L162.66-33.88Q164.13-33 165.22-31.53L165.22-31.53L165.22-31.53Q166.31-30.06 166.75-27.88L166.75-27.88L166.75-27.88Q167.19-25.69 167.34-23.47L167.34-23.47L167.34-23.47Q167.50-21.25 167.50-19.06L167.50-19.06L167.50-10.94ZM178.63-25.19L178.63-25.19L178.63-25.19Q178.63-27.56 179.50-29.47L179.50-29.47L179.50-29.47Q180.38-31.38 181.94-32.72L181.94-32.72L181.94-32.72Q183.50-34.06 185.47-34.84L185.47-34.84L185.47-34.84Q187.44-35.63 189.56-35.81L189.56-35.81L189.56-29.56L189.56-29.56Q187.94-29.25 187.03-28.25L187.03-28.25L187.03-28.25Q186.13-27.25 186.13-25.44L186.13-25.44L186.13-25.44Q186.13-23.94 187.09-23.03L187.09-23.03L187.09-23.03Q188.06-22.13 189.56-21.44L189.56-21.44L189.56-14.75L189.56-14.75Q188.50-15.06 187.41-15.47L187.41-15.47L187.41-15.47Q186.31-15.88 185.25-16.38L185.25-16.38L185.25-16.38Q181.94-18.13 180.28-20.06L180.28-20.06L180.28-20.06Q178.63-22 178.63-25.19ZM201.94-33L199.50-27.81L199.50-27.81Q197.81-28.69 195.91-29.13L195.91-29.13L195.91-29.13Q194-29.56 192.13-29.69L192.13-29.69L192.13-35.88L192.13-35.88Q194.94-35.75 197.31-35.09L197.31-35.09L197.31-35.09Q199.69-34.44 201.94-33L201.94-33ZM178.75-2.81L181.94-7.88L181.94-7.88Q183.19-7 184.91-6.25L184.91-6.25L184.91-6.25Q186.63-5.50 189.25-5.50L189.25-5.50L189.56-5.50L189.56 0.31L189.56 0.31Q188 0.31 186.69 0.22L186.69 0.22L186.69 0.22Q185.38 0.13 184.09-0.22L184.09-0.22L184.09-0.22Q182.81-0.56 181.50-1.19L181.50-1.19L181.50-1.19Q180.19-1.81 178.75-2.81L178.75-2.81ZM192.13-13.81L192.13-20.44L192.13-20.44Q194-19.81 195.94-19.06L195.94-19.06L195.94-19.06Q197.88-18.31 199.47-17.19L199.47-17.19L199.47-17.19Q201.06-16.06 202.09-14.41L202.09-14.41L202.09-14.41Q203.13-12.75 203.13-10.25L203.13-10.25L203.13-10.25Q203.13-7.81 202.25-6L202.25-6L202.25-6Q201.38-4.19 199.91-2.88L199.91-2.88L199.91-2.88Q198.44-1.56 196.44-0.81L196.44-0.81L196.44-0.81Q194.44-0.06 192.13 0.19L192.13 0.19L192.13-5.75L192.13-5.75Q194.25-6.13 195.41-7.09L195.41-7.09L195.41-7.09Q196.56-8.06 196.56-9.69L196.56-9.69L196.56-9.69Q196.56-11.31 195.28-12.22L195.28-12.22L195.28-12.22Q194-13.13 192.13-13.81L192.13-13.81ZM223-30.13L223-10.69L223-10.69Q223-8.56 223.56-7.38L223.56-7.38L223.56-7.38Q224.13-6.19 225.16-5.56L225.16-5.56L225.16-5.56Q226.19-4.94 227.47-4.78L227.47-4.78L227.47-4.78Q228.75-4.63 230.19-4.63L230.19-4.63L230.19 0L230.19 0Q229.38 0.13 228.56 0.19L228.56 0.19L228.56 0.19Q227.88 0.25 226.91 0.28L226.91 0.28L226.91 0.28Q225.94 0.31 225 0.31L225 0.31L225 0.31Q224.06 0.31 223.09 0.25L223.09 0.25L223.09 0.25Q222.13 0.19 221.44 0.06L221.44 0.06L221.44 0.06Q219.31-0.31 218.13-1.78L218.13-1.78L218.13-1.78Q216.94-3.25 216.34-5.03L216.34-5.03L216.34-5.03Q215.75-6.81 215.59-8.50L215.59-8.50L215.59-8.50Q215.44-10.19 215.44-11.13L215.44-11.13L215.44-30.13L210.81-30.13L210.81-35.25L215.44-35.25L215.44-45.25L223-45.25L223-35.25L228.63-35.25L228.63-30.13L223-30.13ZM255.63-29.56L255.63-35.44L255.63-35.44Q259.06-35.25 261.88-33.78L261.88-33.78L261.88-33.78Q264.69-32.31 266.59-29.91L266.59-29.91L266.59-29.91Q268.50-27.50 269.56-24.31L269.56-24.31L269.56-24.31Q270.63-21.13 270.63-17.50L270.63-17.50L270.63-17.50Q270.63-13.88 269.53-10.72L269.53-10.72L269.53-10.72Q268.44-7.56 266.50-5.22L266.50-5.22L266.50-5.22Q264.56-2.88 261.75-1.44L261.75-1.44L261.75-1.44Q258.94 0 255.63 0.25L255.63 0.25L255.63-5.75L255.63-5.75Q258.75-6.44 260.72-9.69L260.72-9.69L260.72-9.69Q262.69-12.94 262.69-17.50L262.69-17.50L262.69-17.50Q262.69-19.81 262.22-21.84L262.22-21.84L262.22-21.84Q261.75-23.88 260.81-25.50L260.81-25.50L260.81-25.50Q259.88-27.13 258.56-28.19L258.56-28.19L258.56-28.19Q257.25-29.25 255.63-29.56L255.63-29.56ZM238.19-17.63L238.19-17.63L238.19-17.63Q238.19-21.25 239.25-24.38L239.25-24.38L239.25-24.38Q240.31-27.50 242.28-29.84L242.28-29.84L242.28-29.84Q244.25-32.19 247-33.63L247-33.63L247-33.63Q249.75-35.06 253.06-35.38L253.06-35.38L253.06-29.56L253.06-29.56Q249.94-28.88 248.06-25.63L248.06-25.63L248.06-25.63Q246.19-22.38 246.19-17.81L246.19-17.81L246.19-17.81Q246.19-15.50 246.66-13.44L246.66-13.44L246.66-13.44Q247.13-11.38 248-9.75L248-9.75L248-9.75Q248.88-8.13 250.16-7.06L250.16-7.06L250.16-7.06Q251.44-6 253.06-5.75L253.06-5.75L253.06 0.25L253.06 0.25Q249.63 0 246.88-1.47L246.88-1.47L246.88-1.47Q244.13-2.94 242.19-5.31L242.19-5.31L242.19-5.31Q240.25-7.69 239.22-10.88L239.22-10.88L239.22-10.88Q238.19-14.06 238.19-17.63ZM280.44-35.25L287.19-35.25L288-31.63L288-12.50L288-12.38L288 0L280.44 0L280.44-35.25ZM290.56-27.31L290.56-33.69L290.56-33.69Q292.13-34.56 294.31-35.03L294.31-35.03L294.31-35.03Q296.50-35.50 300.25-35.50L300.25-35.50L300.25-27.63L300.25-27.63Q298.50-28.13 296-28.19L296-28.19L296-28.19Q294.63-28.19 293.22-27.97L293.22-27.97L293.22-27.97Q291.81-27.75 290.56-27.31L290.56-27.31ZM324.69-29.69L324.69-35.56L324.69-35.56Q328.06-35.25 330.78-33.75L330.78-33.75L330.78-33.75Q333.50-32.25 335.44-29.88L335.44-29.88L335.44-29.88Q337.38-27.50 338.41-24.44L338.41-24.44L338.41-24.44Q339.44-21.38 339.44-18.06L339.44-18.06L339.44-18.06Q339.44-16.56 339.25-15.06L339.25-15.06L317.81-15.06L317.81-20.56L332.25-20.56L332.25-20.56Q332.25-22.19 331.72-23.69L331.72-23.69L331.72-23.69Q331.19-25.19 330.16-26.47L330.16-26.47L330.16-26.47Q329.13-27.75 327.75-28.63L327.75-28.63L327.75-28.63Q326.38-29.50 324.69-29.69L324.69-29.69ZM324.44-5.88L324.44-5.88L324.44-5.88Q325.13-5.88 326.16-6.03L326.16-6.03L326.16-6.03Q327.19-6.19 328.34-6.59L328.34-6.59L328.34-6.59Q329.50-7 330.66-7.63L330.66-7.63L330.66-7.63Q331.81-8.25 332.69-9.13L332.69-9.13L335.44-4.94L335.44-4.94Q333.38-2.38 330.63-1.06L330.63-1.06L330.63-1.06Q327.88 0.25 323.63 0.25L323.63 0.25L323.63 0.25Q320.19 0.25 317.19-1.16L317.19-1.16L317.19-1.16Q314.19-2.56 312.06-5L312.06-5L312.06-5Q309.94-7.44 308.69-10.69L308.69-10.69L308.69-10.69Q307.44-13.94 307.44-17.69L307.44-17.69L307.44-17.69Q307.44-21.25 308.59-24.44L308.59-24.44L308.59-24.44Q309.75-27.63 311.75-30.03L311.75-30.03L311.75-30.03Q313.75-32.44 316.41-33.94L316.41-33.94L316.41-33.94Q319.06-35.44 322.13-35.63L322.13-35.63L322.13-29.63L322.13-29.63Q319.81-29.19 318.31-27.75L318.31-27.75L318.31-27.75Q316.81-26.31 315.97-24.47L315.97-24.47L315.97-24.47Q315.13-22.63 314.78-20.69L314.78-20.69L314.78-20.69Q314.44-18.75 314.44-17.38L314.44-17.38L314.44-17.38Q314.44-14.94 315.03-12.84L315.03-12.84L315.03-12.84Q315.63-10.75 316.88-9.22L316.88-9.22L316.88-9.22Q318.13-7.69 319.97-6.78L319.97-6.78L319.97-6.78Q321.81-5.88 324.44-5.88Z" fill="url(#editing-gradient-gradient)"></path>
        </g>
    </g>
    <style>text {
  font-size: 64px;
  font-family: Arial Black;
  dominant-baseline: central;
  text-anchor: middle;
}</style>
</svg>