<svg width="469.98125px" height="122px" xmlns="http://www.w3.org/2000/svg" viewBox="15.009375000000006 14 469.98125 122" style="background: rgba(29, 63, 114, 0);" preserveAspectRatio="xMidYMid"><defs><filter id="editing-extrude-glow"><feFlood flood-color="#412565" result="flood-1"></feFlood><feMorphology operator="erode" radius="1" in="SourceAlpha" result="erode"></feMorphology><feComposite operator="in" in="flood-1" in2="erode" result="comp1"></feComposite><feConvolveMatrix order="3,3" divisor="1" in="comp1" result="convolve" kernelMatrix="0 0 0 1 1 1 0 0 0"></feConvolveMatrix><feOffset dx="-3" dy="0" in="convolve" result="extrude"></feOffset><feComposite operator="in" in="flood-1" in2="extrude" result="comp-extrude"></feComposite><feFlood flood-color="#71c2cc" result="flood-2"></feFlood><feComposite operator="in" in="flood-2" in2="SourceAlpha" result="comp2"></feComposite><feMorphology operator="dilate" radius="1" in="comp2" result="dilate"></feMorphology><feOffset dx="-4.5" dy="0" in="dilate" result="offset"></feOffset><feGaussianBlur in="offset" stdDeviation="5.8" result="blur"></feGaussianBlur><feComponentTransfer in="blur" result="shadow"><feFuncA type="linear" slope="0.8" intercept="-0.2"></feFuncA></feComponentTransfer><feMerge><feMergeNode in="shadow"></feMergeNode><feMergeNode in="comp-extrude"></feMergeNode><feMergeNode in="SourceGraphic"></feMergeNode></feMerge></filter></defs><g filter="url(#editing-extrude-glow)"><g transform="translate(83.95496678352356, 96.76000213623047)"><path d="M2.30-9.47L2.30-9.47L2.30-9.47Q2.30-11.97 2.94-15.17L2.94-15.17L8.13-42.24L22.27-42.24L17.15-14.98L17.15-14.98Q16.58-11.97 16.58-9.76L16.58-9.76L16.58-9.76Q16.58-7.55 17.50-6.40L17.50-6.40L17.50-6.40Q18.43-5.25 20.16-5.25L20.16-5.25L20.16-5.25Q21.89-5.25 22.98-5.70L22.98-5.70L22.98-5.70Q24.06-6.14 24.96-7.23L24.96-7.23L24.96-7.23Q26.69-9.41 27.78-14.98L27.78-14.98L32.96-42.24L42.62-42.24L37.50-15.04L37.50-15.04Q35.71-5.95 30.78-2.30L30.78-2.30L30.78-2.30Q25.98 1.28 16.51 1.28L16.51 1.28L16.51 1.28Q9.41 1.28 5.63-1.79L5.63-1.79L5.63-1.79Q2.30-4.48 2.30-9.47ZM70.66-9.86L70.66-9.86L70.66-9.86Q71.87-8.32 71.87-5.34L71.87-5.34L71.87-5.34Q71.87-2.37 69.60-0.54L69.60-0.54L69.60-0.54Q67.33 1.28 63.36 1.28L63.36 1.28L63.36 1.28Q61.06 1.28 57.47 0.77L57.47 0.77L57.47 0.77Q50.43-0.32 48.42-0.32L48.42-0.32L48.42-0.32Q46.40-0.32 45.57-0.22L45.57-0.22L45.57-0.22Q44.74-0.13 43.39 0L43.39 0L51.14-42.24L65.15-42.24L58.75-7.04L58.75-7.04Q59.58-6.91 60.35-6.91L60.35-6.91L61.95-6.91L61.95-6.91Q67.33-6.91 70.66-9.86ZM77.18-6.40L77.18-6.40L77.18-6.40Q77.18-8.13 78.08-12.48L78.08-12.48L81.47-29.76L77.70-29.76L77.95-31.68L77.95-31.68Q85.63-33.98 93.06-39.62L93.06-39.62L96.13-39.62L94.59-32.64L99.58-32.64L99.01-29.76L94.08-29.76L90.82-12.48L90.82-12.48Q89.98-8.51 89.98-7.17L89.98-7.17L89.98-7.17Q89.98-4.10 92.67-3.46L92.67-3.46L92.67-3.46Q92.03-1.28 89.73 0L89.73 0L89.73 0Q87.42 1.28 84.16 1.28L84.16 1.28L84.16 1.28Q80.90 1.28 79.04-0.77L79.04-0.77L79.04-0.77Q77.18-2.82 77.18-6.40ZM119.30-17.98L119.30-17.98L119.30-17.98Q121.60-22.08 121.60-26.24L121.60-26.24L121.60-26.24Q121.60-28.99 119.62-28.99L119.62-28.99L119.62-28.99Q118.08-28.99 116.48-26.37L116.48-26.37L116.48-26.37Q114.82-23.74 114.30-20.35L114.30-20.35L110.98 0L97.73 1.28L104.26-32.64L114.82-33.92L113.66-27.46L113.66-27.46Q116.80-33.92 123.84-33.92L123.84-33.92L123.84-33.92Q127.55-33.92 129.57-32L129.57-32L129.57-32Q131.58-30.08 131.58-26.14L131.58-26.14L131.58-26.14Q131.58-22.21 128.99-19.71L128.99-19.71L128.99-19.71Q126.40-17.22 121.98-17.22L121.98-17.22L121.98-17.22Q120.06-17.22 119.30-17.98ZM135.39-1.92L135.39-1.92L135.39-1.92Q133.89-3.58 133.22-6.21L133.22-6.21L133.22-6.21Q132.54-8.83 132.54-13.12L132.54-13.12L132.54-13.12Q132.54-17.41 134.02-21.31L134.02-21.31L134.02-21.31Q135.49-25.22 138.18-28.03L138.18-28.03L138.18-28.03Q143.68-33.92 152.77-33.92L152.77-33.92L152.77-33.92Q156.03-33.92 158.40-32.83L158.40-32.83L169.34-33.92L164.61-8.96L164.61-8.96Q164.42-8.19 164.42-6.78L164.42-6.78L164.42-6.78Q164.42-5.38 165.28-4.48L165.28-4.48L165.28-4.48Q166.14-3.58 167.42-3.46L167.42-3.46L167.42-3.46Q166.78-1.28 164.45 0L164.45 0L164.45 0Q162.11 1.28 159.49 1.28L159.49 1.28L159.49 1.28Q156.86 1.28 155.10 0.29L155.10 0.29L155.10 0.29Q153.34-0.70 152.83-2.37L152.83-2.37L152.83-2.37Q151.81-0.77 149.63 0.26L149.63 0.26L149.63 0.26Q147.46 1.28 144.54 1.28L144.54 1.28L144.54 1.28Q141.63 1.28 139.26 0.51L139.26 0.51L139.26 0.51Q136.90-0.26 135.39-1.92ZM148.90-27.90L148.90-27.90L148.90-27.90Q148.16-26.75 147.52-24.80L147.52-24.80L147.52-24.80Q146.88-22.85 145.82-17.63L145.82-17.63L145.82-17.63Q144.77-12.42 144.77-8.70L144.77-8.70L144.77-8.70Q144.77-4.99 145.34-3.90L145.34-3.90L145.34-3.90Q145.92-2.82 146.94-2.82L146.94-2.82L146.94-2.82Q148.99-2.82 150.50-4.77L150.50-4.77L150.50-4.77Q152-6.72 152.58-10.18L152.58-10.18L155.97-28.93L155.97-28.93Q154.62-30.08 153.06-30.08L153.06-30.08L153.06-30.08Q151.49-30.08 150.56-29.57L150.56-29.57L150.56-29.57Q149.63-29.06 148.90-27.90ZM191.94-22.46L191.94-22.46L191.94-22.46Q192.83-24.83 192.83-26.88L192.83-26.88L192.83-26.88Q192.83-30.66 189.76-30.66L189.76-30.66L189.76-30.66Q188.16-30.66 186.85-29.22L186.85-29.22L186.85-29.22Q185.54-27.78 185.54-25.98L185.54-25.98L185.54-25.98Q185.54-24.70 186.56-23.68L186.56-23.68L186.56-23.68Q188.03-22.27 191.81-19.97L191.81-19.97L191.81-19.97Q195.58-17.66 197.02-15.78L197.02-15.78L197.02-15.78Q198.46-13.89 198.46-11.30L198.46-11.30L198.46-11.30Q198.46-8.70 197.22-6.34L197.22-6.34L197.22-6.34Q195.97-3.97 193.73-2.30L193.73-2.30L193.73-2.30Q188.93 1.28 181.25 1.28L181.25 1.28L181.25 1.28Q177.09 1.28 173.89-0.90L173.89-0.90L173.89-0.90Q170.69-3.01 170.69-5.50L170.69-5.50L170.69-5.50Q170.69-8 172.51-9.47L172.51-9.47L172.51-9.47Q174.34-10.94 177.02-10.94L177.02-10.94L177.02-10.94Q179.71-10.94 181.38-9.92L181.38-9.92L181.38-9.92Q180.54-7.81 180.54-6.40L180.54-6.40L180.54-6.40Q180.54-2.18 184.13-2.18L184.13-2.18L184.13-2.18Q185.66-2.18 186.69-3.14L186.69-3.14L186.69-3.14Q187.71-4.10 187.71-5.76L187.71-5.76L187.71-5.76Q187.71-9.02 182.21-12.48L182.21-12.48L182.21-12.48Q177.73-15.42 176.70-16.58L176.70-16.58L176.70-16.58Q174.98-18.62 174.98-21.18L174.98-21.18L174.98-21.18Q174.98-23.74 176.19-26.18L176.19-26.18L176.19-26.18Q177.41-28.61 179.65-30.34L179.65-30.34L179.65-30.34Q184.32-33.92 192.45-33.92L192.45-33.92L192.45-33.92Q196.61-33.92 199.07-32.26L199.07-32.26L199.07-32.26Q201.54-30.59 201.54-27.78L201.54-27.78L201.54-27.78Q201.54-24.96 199.84-23.36L199.84-23.36L199.84-23.36Q198.14-21.76 195.07-21.76L195.07-21.76L195.07-21.76Q192.96-21.76 191.94-22.46ZM204.93-6.40L204.93-6.40L204.93-6.40Q204.93-8.13 205.82-12.48L205.82-12.48L209.22-29.76L205.44-29.76L205.70-31.68L205.70-31.68Q213.38-33.98 220.80-39.62L220.80-39.62L223.87-39.62L222.34-32.64L227.33-32.64L226.75-29.76L221.82-29.76L218.56-12.48L218.56-12.48Q217.73-8.51 217.73-7.17L217.73-7.17L217.73-7.17Q217.73-4.10 220.42-3.46L220.42-3.46L220.42-3.46Q219.78-1.28 217.47 0L217.47 0L217.47 0Q215.17 1.28 211.90 1.28L211.90 1.28L211.90 1.28Q208.64 1.28 206.78-0.77L206.78-0.77L206.78-0.77Q204.93-2.82 204.93-6.40ZM240.70 1.28L240.70 1.28L240.70 1.28Q226.62 1.28 226.62-11.97L226.62-11.97L226.62-11.97Q226.62-21.38 231.81-27.46L231.81-27.46L231.81-27.46Q237.31-33.92 246.85-33.92L246.85-33.92L246.85-33.92Q253.76-33.92 257.28-30.72L257.28-30.72L257.28-30.72Q260.80-27.52 260.80-20.80L260.80-20.80L260.80-20.80Q260.80-10.56 255.30-4.61L255.30-4.61L255.30-4.61Q249.92 1.28 240.70 1.28ZM242.37-26.56L242.37-26.56L242.37-26.56Q241.60-24.83 240.99-22.24L240.99-22.24L240.99-22.24Q240.38-19.65 239.62-15.55L239.62-15.55L239.62-15.55Q238.85-11.46 238.85-6.40L238.85-6.40L238.85-6.40Q238.85-4.74 239.39-3.65L239.39-3.65L239.39-3.65Q239.94-2.56 241.41-2.56L241.41-2.56L241.41-2.56Q242.88-2.56 243.81-3.26L243.81-3.26L243.81-3.26Q244.74-3.97 245.44-5.63L245.44-5.63L245.44-5.63Q246.72-8.58 247.74-14.05L247.74-14.05L247.74-14.05Q248.77-19.52 248.86-21.89L248.86-21.89L248.86-21.89Q248.96-24.26 248.96-26.02L248.96-26.02L248.96-26.02Q248.96-27.78 248.45-28.93L248.45-28.93L248.45-28.93Q247.94-30.08 246.50-30.08L246.50-30.08L246.50-30.08Q245.06-30.08 244.10-29.18L244.10-29.18L244.10-29.18Q243.14-28.29 242.37-26.56ZM284.61-17.98L284.61-17.98L284.61-17.98Q286.91-22.08 286.91-26.24L286.91-26.24L286.91-26.24Q286.91-28.99 284.93-28.99L284.93-28.99L284.93-28.99Q283.39-28.99 281.79-26.37L281.79-26.37L281.79-26.37Q280.13-23.74 279.62-20.35L279.62-20.35L276.29 0L263.04 1.28L269.57-32.64L280.13-33.92L278.98-27.46L278.98-27.46Q282.11-33.92 289.15-33.92L289.15-33.92L289.15-33.92Q292.86-33.92 294.88-32L294.88-32L294.88-32Q296.90-30.08 296.90-26.14L296.90-26.14L296.90-26.14Q296.90-22.21 294.30-19.71L294.30-19.71L294.30-19.71Q291.71-17.22 287.30-17.22L287.30-17.22L287.30-17.22Q285.38-17.22 284.61-17.98ZM323.84-10.82L323.84-10.82L323.84-10.82Q325.44-9.73 325.44-7.33L325.44-7.33L325.44-7.33Q325.44-4.93 324.22-3.39L324.22-3.39L324.22-3.39Q323.01-1.86 321.02-0.83L321.02-0.83L321.02-0.83Q316.93 1.28 312.51 1.28L312.51 1.28L312.51 1.28Q308.10 1.28 305.50 0.32L305.50 0.32L305.50 0.32Q302.91-0.64 301.18-2.43L301.18-2.43L301.18-2.43Q297.79-5.82 297.79-12.03L297.79-12.03L297.79-12.03Q297.79-21.70 303.04-27.58L303.04-27.58L303.04-27.58Q308.67-33.92 318.46-33.92L318.46-33.92L318.46-33.92Q324.54-33.92 327.55-31.36L327.55-31.36L327.55-31.36Q329.79-29.44 329.79-26.30L329.79-26.30L329.79-26.30Q329.79-15.04 310.34-15.04L310.34-15.04L310.34-15.04Q310.08-13.38 310.08-11.97L310.08-11.97L310.08-11.97Q310.08-9.02 311.39-7.90L311.39-7.90L311.39-7.90Q312.70-6.78 315.14-6.78L315.14-6.78L315.14-6.78Q317.57-6.78 320.16-7.90L320.16-7.90L320.16-7.90Q322.75-9.02 323.84-10.82ZM310.78-17.79L310.78-17.79L310.78-17.79Q315.33-17.79 317.95-20.61L317.95-20.61L317.95-20.61Q320.58-23.30 320.58-27.58L320.58-27.58L320.58-27.58Q320.58-29.06 320.03-29.86L320.03-29.86L320.03-29.86Q319.49-30.66 318.40-30.66L318.40-30.66L318.40-30.66Q317.31-30.66 316.38-30.24L316.38-30.24L316.38-30.24Q315.46-29.82 314.50-28.42L314.50-28.42L314.50-28.42Q312.13-25.22 310.78-17.79Z" fill="#8256d2"></path></g></g><style>text {
  font-size: 64px;
  font-family: Arial Black;
  dominant-baseline: central;
  text-anchor: middle;
}</style></svg>